<svg xmlns="http://www.w3.org/2000/svg" xml:space="preserve" style="fill-rule:evenodd;clip-rule:evenodd;stroke-linejoin:round;stroke-miterlimit:2" viewBox="0 0 16 16"><path d="M6 22q-.825 0-1.412-.587A1.93 1.93 0 0 1 4 20V4q0-.825.588-1.413A1.93 1.93 0 0 1 6 2h8l6 6v12a1.93 1.93 0 0 1-.587 1.413c-.37.382-.881.594-1.413.587zm3.254-2.121q.595 0 1.011-.417.417-.417.417-1.012 0-.236-.077-.458a1.5 1.5 0 0 0-.209-.399l.667-.845q.488.273 1.042.273.553 0 1.041-.273l.679.845a1.5 1.5 0 0 0-.208.399 1.4 1.4 0 0 0-.078.458q0 .595.417 1.012t1.012.417 1.012-.417c.272-.265.423-.632.416-1.012a1.38 1.38 0 0 0-.416-1.012 1.38 1.38 0 0 0-1.012-.417c-.201-.004-.4.037-.584.119l-.678-.833a2.15 2.15 0 0 0 .524-1.762l.964-.321c.263.408.716.656 1.202.655q.595 0 1.012-.417t.417-1.012-.417-1.012a1.38 1.38 0 0 0-1.012-.417q-.594 0-1.012.417a1.38 1.38 0 0 0-.416 1.012v.095l-.964.334a2.3 2.3 0 0 0-.637-.727 2.06 2.06 0 0 0-.899-.381v-1.035q.452-.132.762-.506.309-.375.309-.875a1.38 1.38 0 0 0-.416-1.012 1.38 1.38 0 0 0-1.012-.417q-.595 0-1.012.417a1.38 1.38 0 0 0-.417 1.012q0 .5.304.875.303.374.768.506v1.035a2.05 2.05 0 0 0-.899.381 2.3 2.3 0 0 0-.637.727l-.964-.334v-.095q0-.595-.417-1.012a1.38 1.38 0 0 0-1.012-.417q-.595 0-1.012.417a1.38 1.38 0 0 0-.417 1.012q0 .595.417 1.012t1.012.417q.381 0 .69-.179.31-.179.512-.476l.965.321q-.072.464.059.929.13.464.464.833l-.678.845a1.6 1.6 0 0 0-.274-.095 1.2 1.2 0 0 0-.309-.036q-.596 0-1.012.417a1.38 1.38 0 0 0-.417 1.012q0 .595.417 1.012.416.417 1.012.417" style="fill:#f41d5c" transform="matrix(.7 0 0 .7 -.43 -.388)"/></svg>